- 
http://www.Speed.Cd 
       
http://www.Speed.Cd       the fast  and The Hottest Private Tracker on the net

(((--Registration will be open on june every weekend--)))

Please Seed back to make the speed Faster!!!

------------------nfo--------------------------
-[img]http://img706.imageshack.us/img706/8541/arthurbluray.jpg[/img]


[color=blue][size=5][b]Arthur.2011.BDRip.XVID.AC3.HQ.Hive-CM8[/b][/size][/color]


[b]Thx Hive


CM8 Doing It Right The First Time :D


Source Bluray

Video: 720x400 @bitrate 1800 2pass
Audio: English DTS to AC3 5.1 @448
Sample: yes included
Subs: yes english in srt /subs[/b]


[url]http://www.imdb.com/title/tt1334512/[/url]


General
Complete name                    : Arthur.2011.BDRip.XVID.AC3.HQ.Hive-CM8.avi
Format                           : AVI
Format/Info                      : Audio Video Interleave
File size                        : 1.75 GiB
Duration                         : 1h 49mn
Overall bit rate                 : 2 283 Kbps
Writing application              : Nandub v1.0rc2
Writing library                  : Nandub build 1853/release

Video
ID                               : 0
Format                           : MPEG-4 Visual
Format profile                   : Advanced Simple@L5
Format settings, BVOP            : 1
Format settings, QPel            : Yes
Format settings, GMC             : No warppoints
Format settings, Matrix          : Default (H.263)
Muxing mode                      : Packed bitstream
Codec ID                         : XVID
Codec ID/Hint                    : XviD
Duration                         : 1h 49mn
Bit rate                         : 1 826 Kbps
Width                            : 720 pixels
Height                           : 400 pixels
Display aspect ratio             : 16:9
Frame rate                       : 23.976 fps
Color space                      : YUV
Chroma subsampling               : 4:2:0
Bit depth                        : 8 bits
Scan type                        : Progressive
Compression mode                 : Lossy
Bits/(Pixel*Frame)               : 0.264
Stream size                      : 1.40 GiB (80%)
Writing library                  : XviD 1.2.1 (UTC 2008-12-04)

Audio
ID                               : 1
Format                           : AC-3
Format/Info                      : Audio Coding 3
Mode extension                   : CM (complete main)
Codec ID                         : 2000
Duration                         : 1h 49mn
Bit rate mode                    : Constant
Bit rate                         : 448 Kbps
Channel(s)                       : 6 channels
Channel positions                : Front: L C R, Side: L R, LFE
Sampling rate                    : 48.0 KHz
Bit depth                        : 16 bits
Compression mode                 : Lossy
Stream size                      : 352 MiB (20%)
Alignment                        : Split accross interleaves
Interleave, duration             : 42 ms (1.00 video frame)
Interleave, preload duration     : 500 ms


Russell Brand    ...    Arthur
Helen Mirren     ...    Hobson
Greta Gerwig     ...    Naomi Quinn
Jennifer Garner  ...    Susan Johnson
Geraldine James  ...    Vivienne
Luis Guzman      ...    Bitterman
Nick Nolte       ...    Burt Johnson


A drunken playboy stands to lose a wealthy inheritance
when he falls for a woman his family doesn't like. 


[img]http://img59.imageshack.us/img59/6118/68700624.png[/img]
[img]http://img219.imageshack.us/img219/3637/arar.png[/img]
[img]http://img28.imageshack.us/img28/431/ararar.png[/img]
[img]http://img856.imageshack.us/img856/357/arararar.png[/img]
[img]http://img231.imageshack.us/img231/8092/ararararar.png[/img]
[img]http://img221.imageshack.us/img221/1150/arararaarrarar.png[/img]
[img]http://img40.imageshack.us/img40/1619/ararararaarrarar.png[/img]
[img]http://img848.imageshack.us/img848/4360/arararararar.png[/img]


Cover + Labels:
[img]http://img96.imageshack.us/img96/8562/arthur2011cdcover53624.jpg[/img]

[img]http://img89.imageshack.us/img89/5100/arthur2011frontcover536.jpg[/img]

[img]http://img69.imageshack.us/img69/2443/arthurhirescover13633.jpg[/img]



Greetz

ViSiON,SANTi,MAGNET,THC,T0XiC,LKRG,IMAGiNE,WBZ,FLAWL3SS,NOVA
D2U,Vik,Rapeseed,SAFC,goldadvance,MEMORY100,KaN1vE,Unevano,
Pinnz,Wayne,Mr Hive and all P2P groups 
Great Work Guys :D

FYS

CM8@hushmail.com